<svg xmlns="http://www.w3.org/2000/svg" viewBox="0 0 512 512" width="512" height="512">
	<style>
		tspan { white-space:pre }
		.shp0 { fill: #f7f7f7 } 
	</style>
	<g id="Layer">
		<g id="Layer">
			<path id="Layer" class="shp0" d="M400.27 175.6C398.87 172.59 395.86 170.67 392.54 170.67L291.42 170.67L391.21 13.1C392.88 10.47 392.98 7.14 391.48 4.42C389.98 1.69 387.11 0 384 0L247.47 0C244.24 0 241.28 1.83 239.83 4.72L111.83 260.72C110.51 263.36 110.66 266.5 112.21 269.01C113.77 271.53 116.51 273.07 119.47 273.07L207.22 273.07L111.6 500.15C109.97 504.04 111.42 508.54 115.02 510.74C116.4 511.59 117.93 512 119.46 512C121.91 512 124.33 510.95 126 508.97L399.07 184.7C401.21 182.16 401.67 178.61 400.27 175.6Z" />
		</g>
	</g>
	<g id="Layer">
	</g>
	<g id="Layer">
	</g>
	<g id="Layer">
	</g>
	<g id="Layer">
	</g>
	<g id="Layer">
	</g>
	<g id="Layer">
	</g>
	<g id="Layer">
	</g>
	<g id="Layer">
	</g>
	<g id="Layer">
	</g>
	<g id="Layer">
	</g>
	<g id="Layer">
	</g>
	<g id="Layer">
	</g>
	<g id="Layer">
	</g>
	<g id="Layer">
	</g>
	<g id="Layer">
	</g>
</svg>