<svg height="512" viewBox="0 0 34 58" width="512" xmlns="http://www.w3.org/2000/svg"><g id="Page-1" fill="none" fill-rule="evenodd"><g id="001---Mobie-AR" fill-rule="nonzero"><rect id="Rectangle-path" fill="#b0d3f0" height="58" rx="3" width="34"/><path id="Shape" d="m34 21.83v33.17c0 1.6568542-1.3431458 3-3 3h-28c-1.65685425 0-3-1.3431458-3-3v-15.59c5.1-7.9 15.06-17.03 34-17.58z" fill="#90bae1"/><path id="Shape" d="m27 0-2.861 3.052c-.5672653.60498515-1.3596648.94815313-2.189.948h-9.9c-.8293352.00015313-1.6217347-.34301485-2.189-.948l-2.861-3.052z" fill="#3b97d3"/><path id="Shape" d="m25 17-8 3-8-3 8-3z" fill="#f0c419"/><path id="Shape" d="m17 20v9l-8-3v-9z" fill="#e57e25"/><path id="Shape" d="m25 17v9l-8 3v-9z" fill="#f29c1f"/><g fill="#35495e"><path id="Shape" d="m7 15c-.55228475 0-1-.4477153-1-1v-3c0-.5522847.44771525-1 1-1h3c.5522847 0 1 .4477153 1 1s-.4477153 1-1 1h-2v2c0 .5522847-.44771525 1-1 1z"/><path id="Shape" d="m27 15c-.5522847 0-1-.4477153-1-1v-2h-2c-.5522847 0-1-.4477153-1-1s.4477153-1 1-1h3c.5522847 0 1 .4477153 1 1v3c0 .5522847-.4477153 1-1 1z"/><path id="Shape" d="m10 34h-3c-.55228475 0-1-.4477153-1-1v-3c0-.5522847.44771525-1 1-1s1 .4477153 1 1v2h2c.5522847 0 1 .4477153 1 1s-.4477153 1-1 1z"/><path id="Shape" d="m27 34h-3c-.5522847 0-1-.4477153-1-1s.4477153-1 1-1h2v-2c0-.5522847.4477153-1 1-1s1 .4477153 1 1v3c0 .5522847-.4477153 1-1 1z"/></g><path id="Shape" d="m14 40h10c1.6568542 0 3 1.3431458 3 3s-1.3431458 3-3 3h-14c-1.65685425 0-3-1.3431458-3-3s1.34314575-3 3-3z" fill="#ff5364"/><path id="Shape" d="m34 50v5c0 1.6568542-1.3431458 3-3 3h-28c-1.65685425 0-3-1.3431458-3-3v-5c0 1.6568542 1.34314575 3 3 3h28c1.6568542 0 3-1.3431458 3-3z" fill="#3b97d3"/></g></g></svg>