<svg id="Layer_1" enable-background="new 0 0 256 256" height="512" viewBox="0 0 256 256" width="512" xmlns="http://www.w3.org/2000/svg"><path d="m239.95 230.073h-111.95v-141.683h111.95c3.048 0 5.519 2.471 5.519 5.519v130.645c0 3.048-2.471 5.519-5.519 5.519z" fill="#a4c9ff"/><path d="m16.05 230.073h111.95v-141.683h-111.95c-3.048 0-5.519 2.471-5.519 5.519v130.645c0 3.048 2.471 5.519 5.519 5.519z" fill="#a4c9ff"/><path d="m239.95 232.073h-111.95c-1.104 0-2-.896-2-2v-141.683c0-1.104.896-2 2-2h111.95c4.146 0 7.519 3.373 7.519 7.52v130.645c0 4.145-3.373 7.518-7.519 7.518zm-109.95-4h109.95c1.94 0 3.519-1.579 3.519-3.52v-130.644c0-1.94-1.578-3.52-3.519-3.52h-109.95z" fill="#3762cc"/><path d="m128 232.073h-111.95c-4.146 0-7.519-3.373-7.519-7.52v-130.644c0-4.146 3.373-7.52 7.519-7.52h111.95c1.104 0 2 .896 2 2v141.684c0 1.105-.896 2-2 2zm-111.95-141.683c-1.94 0-3.519 1.579-3.519 3.52v130.645c0 1.94 1.578 3.52 3.519 3.52h109.95v-137.685z" fill="#3762cc"/><path d="m230.982 82.317c-4.962-1.835-16.477-5.89-30.081-9.34v66.443h-72.901v77.991h.021c1.261-49.272 105.576-8.104 105.576-8.104v-115.125-2.618-5.494c0-1.675-1.043-3.172-2.615-3.753z" fill="#e0ebfc"/><path d="m54.981 139.42v-66.413c-13.552 3.443-25.014 7.48-29.962 9.311-1.572.581-2.616 2.077-2.616 3.753v5.494 2.618 115.125s104.539-41.258 105.584 8.257h.013v-78.145z" fill="#e0ebfc"/><path d="m54.981 139.42h-11.35c-2.311 0-4.475-.611-6.354-1.67-.401.136-.807.271-1.204.407-1.836.629-2.81 2.613-2.175 4.431.504 1.441 1.867 2.345 3.325 2.345.381 0 .77-.062 1.15-.192 4.921-1.686 10.835-3.571 17.229-5.321z" fill="#b9befc"/><path d="m220.096 138.158c-.458-.157-.925-.313-1.389-.47-1.903 1.096-4.104 1.732-6.457 1.732h-11.35-.333c6.394 1.75 12.308 3.635 17.228 5.321.381.13.769.192 1.15.192 1.458 0 2.821-.904 3.325-2.345.636-1.817-.338-3.801-2.174-4.43z" fill="#b9befc"/><path d="m71.194 9.714h113.493v145.92h-113.493z" fill="#6bdddd" transform="matrix(0 -1 1 0 45.267 210.614)"/><g fill="#e0ebfc"><path d="m37.223 124.094c-1.458 0-2.821-.904-3.325-2.345-.635-1.818.339-3.802 2.175-4.43 25.655-8.789 60.408-17.248 80.284-7.645 1.747.844 2.471 2.929 1.619 4.658-.851 1.729-2.957 2.446-4.704 1.603-18.64-9.007-54.928 1.126-74.899 7.968-.381.129-.769.191-1.15.191z"/><path d="m218.946 124.094c-.381 0-.77-.062-1.15-.193-19.972-6.841-56.259-16.974-74.899-7.968-1.747.843-3.853.126-4.704-1.603-.852-1.729-.128-3.814 1.619-4.658 19.876-9.603 54.631-1.143 80.284 7.645 1.836.629 2.81 2.613 2.175 4.43-.504 1.442-1.867 2.347-3.325 2.347z"/><path d="m37.138 104.094c-1.458 0-2.821-.904-3.325-2.345-.635-1.818.339-3.802 2.175-4.43 25.655-8.789 60.408-17.248 80.284-7.645 1.747.844 2.471 2.929 1.619 4.658-.851 1.729-2.957 2.446-4.704 1.603-18.64-9.007-54.928 1.126-74.899 7.968-.38.129-.768.191-1.15.191z"/><path d="m218.862 104.094c-.381 0-.77-.062-1.15-.193-19.972-6.841-56.259-16.974-74.899-7.968-1.747.843-3.853.126-4.704-1.603-.852-1.729-.128-3.814 1.619-4.658 19.876-9.603 54.631-1.143 80.284 7.645 1.836.629 2.81 2.613 2.175 4.43-.504 1.443-1.867 2.347-3.325 2.347z"/><path d="m116.357 130.513c-15.293-7.389-39.39-4.082-61.376 1.838v7.07h.621c19.556-5.352 43.623-9.435 57.67-2.647 1.747.843 3.853.125 4.704-1.603.852-1.73.127-3.815-1.619-4.658z"/><path d="m139.812 130.513c-1.747.844-2.471 2.929-1.619 4.658.851 1.729 2.957 2.446 4.704 1.603 14.047-6.787 38.114-2.705 57.669 2.647h.334v-7.146c-21.908-5.872-45.862-9.119-61.088-1.762z"/><path d="m128.021 217.412h-.021v2.771h.046.741 100.81c2.209 0 4-1.791 4-4v-6.875s-104.315-41.168-105.576 8.104z"/><path d="m127.987 217.564c-1.044-49.515-105.584-8.257-105.584-8.257v6.875c0 2.209 1.791 4 4 4h100.055 1.542v-2.618z"/></g><path d="m229.598 222.182h-101.552c-1.104 0-2.046-.896-2.046-2v-2.77c0-.121.011-.238.031-.354.3-8.847 3.795-15.543 10.391-19.908 26.518-17.557 95.007 9.151 97.91 10.297.764.302 1.266 1.039 1.266 1.86v6.874c0 3.309-2.692 6.001-6 6.001zm-99.598-4h99.598c1.103 0 2-.897 2-2v-5.497c-9.532-3.584-70.044-25.372-92.97-10.198-5.594 3.703-8.409 9.257-8.607 16.977-.002.083-.009.163-.021.243zm-1.979-.77h.01z" fill="#3762cc"/><path d="m128 222.182h-101.598c-3.309 0-6-2.691-6-6v-6.874c0-.821.502-1.559 1.266-1.86 2.905-1.147 71.476-27.883 97.963-10.269 6.621 4.403 10.102 11.165 10.35 20.102.013.093.02.188.02.284v2.617c-.001 1.104-.897 2-2.001 2zm-103.598-11.497v5.497c0 1.103.897 2 2 2h99.598v-.384c-.008-.063-.012-.127-.014-.191-.163-7.777-2.967-13.369-8.569-17.097-22.896-15.23-83.479 6.59-93.015 10.175z" fill="#3762cc"/><path d="m37.223 165.774c-1.458 0-2.821-.904-3.325-2.345-.635-1.818.339-3.802 2.175-4.43 25.655-8.789 60.408-17.249 80.284-7.646 1.747.844 2.471 2.929 1.619 4.658-.851 1.728-2.957 2.446-4.704 1.603-18.64-9.007-54.928 1.126-74.899 7.968-.381.13-.769.192-1.15.192z" fill="#b9befc"/><path d="m37.223 186.613c-1.458 0-2.821-.904-3.325-2.345-.635-1.818.339-3.802 2.175-4.43 25.655-8.789 60.408-17.248 80.284-7.645 1.747.844 2.471 2.929 1.619 4.658-.851 1.728-2.957 2.446-4.704 1.603-18.64-9.007-54.928 1.126-74.899 7.968-.381.129-.769.191-1.15.191z" fill="#b9befc"/><path d="m218.946 165.774c-.381 0-.77-.062-1.15-.193-19.971-6.842-56.257-16.975-74.899-7.968-1.747.843-3.853.126-4.704-1.603-.852-1.729-.128-3.814 1.619-4.658 19.874-9.603 54.629-1.144 80.284 7.646 1.836.629 2.81 2.613 2.175 4.43-.504 1.441-1.867 2.346-3.325 2.346z" fill="#b9befc"/><path d="m218.946 186.613c-.381 0-.77-.062-1.15-.193-19.972-6.841-56.259-16.974-74.899-7.968-1.747.844-3.853.126-4.704-1.603-.852-1.729-.128-3.814 1.619-4.658 19.876-9.603 54.631-1.143 80.284 7.645 1.836.629 2.81 2.613 2.175 4.43-.504 1.443-1.867 2.347-3.325 2.347z" fill="#b9befc"/><path d="m128.021 219.412c-1.104 0-2.021-.896-2.021-2v-126c0-.12.011-.238.031-.354.297-8.741 3.714-15.387 10.161-19.755 23.188-15.71 78.945 3.023 95.482 9.138 2.347.867 3.923 3.129 3.923 5.629v123.237c0 .662-.327 1.281-.875 1.653-.548.373-1.244.45-1.859.207-.691-.273-69.443-27.092-94.235-10.682-5.594 3.703-8.409 9.257-8.607 16.977-.028 1.086-.915 1.95-2 1.95zm34-28.221c26.587 0 59.799 11.576 69.577 15.214v-120.335c0-.833-.526-1.588-1.31-1.877-11.449-4.233-69.69-24.595-91.852-9.578-5.468 3.704-8.221 9.216-8.416 16.848-.002.082-.009.163-.021.243v111.792c1.641-2.481 3.782-4.602 6.422-6.348 6.526-4.319 15.596-5.959 25.6-5.959zm-34-99.779h.01z" fill="#3762cc"/><path d="m128 219.564c-1.088 0-1.99-.87-2.014-1.958-.163-7.777-2.967-13.37-8.57-17.097-24.767-16.478-93.587 10.385-94.279 10.658-.615.244-1.311.167-1.859-.207-.548-.372-.875-.991-.875-1.653v-123.237c0-2.5 1.576-4.762 3.923-5.629 16.556-6.123 72.375-24.873 95.534-9.109 6.472 4.407 9.876 11.117 10.121 19.948.013.093.02.188.02.284v126c-.001 1.105-.897 2-2.001 2zm-33.823-150.396c-26.104 0-60.014 11.9-68.465 15.025-.783.289-1.31 1.044-1.31 1.877v120.335c13.463-5.009 71.389-25.082 95.229-9.227 2.615 1.739 4.739 3.846 6.369 6.31v-111.69c-.008-.063-.012-.127-.014-.191-.162-7.689-2.902-13.239-8.379-16.968-5.814-3.959-14.127-5.471-23.43-5.471z" fill="#3762cc"/><path d="m43.631 139.42h11.349v-113.493h-11.349c-7.163 0-12.971 5.807-12.971 12.971v87.552c0 7.163 5.808 12.97 12.971 12.97z" fill="#4671c6"/><path d="m212.25 25.927h-11.349v113.493h11.349c7.163 0 12.971-5.807 12.971-12.971v-87.551c0-7.164-5.808-12.971-12.971-12.971z" fill="#4671c6"/><path d="m219.546 72.946v19.456c0 2.686-2.178 4.864-4.864 4.864h-3.243c-2.686 0-4.864-2.178-4.864-4.864v-19.456c0-2.686 2.178-4.864 4.864-4.864h3.243c2.686 0 4.864 2.177 4.864 4.864z" fill="#a4c9ff"/><path d="m46.874 70.514v24.32c0 2.239-1.815 4.053-4.053 4.053-2.239 0-4.053-1.815-4.053-4.053v-24.32c0-2.239 1.815-4.053 4.053-4.053 2.238-.001 4.053 1.814 4.053 4.053z" fill="#e0ebfc"/><path d="m54.98 141.421h-11.35c-8.255 0-14.971-6.716-14.971-14.971v-87.553c0-8.255 6.716-14.971 14.971-14.971h11.35c1.104 0 2 .896 2 2v113.494c0 1.105-.895 2.001-2 2.001zm-11.349-113.494c-6.049 0-10.971 4.922-10.971 10.971v87.553c0 6.049 4.922 10.971 10.971 10.971h9.35v-109.495z" fill="#3762cc"/><path d="m212.25 141.421h-11.35c-1.104 0-2-.896-2-2v-113.494c0-1.104.896-2 2-2h11.35c8.255 0 14.971 6.716 14.971 14.971v87.553c0 8.254-6.716 14.97-14.971 14.97zm-9.35-4h9.35c6.049 0 10.971-4.922 10.971-10.971v-87.553c0-6.049-4.922-10.971-10.971-10.971h-9.35z" fill="#3762cc"/><path d="m200.9 141.421h-145.92c-1.104 0-2-.896-2-2v-113.494c0-1.104.896-2 2-2h145.92c1.104 0 2 .896 2 2v113.494c0 1.104-.895 2-2 2zm-143.92-4h141.92v-109.494h-141.92z" fill="#3762cc"/><path d="m164.11 62.318c-.012-.057-.025-.113-.04-.169-.066-.245-.151-.482-.265-.705-.013-.026-.03-.048-.044-.074-.111-.204-.243-.395-.39-.574-.034-.041-.066-.083-.102-.123-.168-.187-.355-.357-.561-.506-.014-.01-.024-.025-.039-.035-.027-.019-.059-.028-.087-.047-.186-.124-.384-.23-.594-.319-.042-.018-.082-.04-.125-.056-.021-.008-.04-.02-.061-.028l-32.645-11.667c-.786-.282-1.647-.282-2.435 0l-32.644 11.667c-.021.008-.04.019-.06.027-.043.017-.083.038-.126.056-.211.089-.409.196-.595.32-.027.018-.058.027-.085.046-.014.009-.024.024-.038.034-.206.15-.394.32-.562.507-.035.039-.066.081-.1.121-.148.18-.281.371-.392.576-.013.025-.03.047-.043.072-.114.223-.199.46-.266.706-.015.056-.028.112-.04.169-.055.251-.093.507-.093.772v39.72c0 1.529.961 2.892 2.4 3.407l32.645 11.668c.02.007.041.009.061.016.129.044.261.075.394.103.06.013.119.032.18.042.19.031.382.049.575.049h.008.001.008c.193 0 .385-.018.575-.049.061-.01.12-.029.181-.042.132-.028.263-.059.391-.102.02-.007.042-.009.062-.016l32.644-11.668c1.439-.515 2.4-1.878 2.4-3.407v-39.72c0-.265-.038-.521-.093-.771zm-36.169-7.055 21.896 7.826-7.612 2.721-14.283 5.105-21.896-7.826zm-29.028 12.961 8.183 2.925 17.227 6.157v32.036l-25.41-9.081zm58.055 32.036-25.409 9.081v-32.036l20.737-7.411 4.672-1.67z" fill="#f9a7a7"/><path d="m72.386 85.234c-1.889 0-3.42-1.531-3.42-3.42v-36.062c0-5.658 4.602-10.26 10.26-10.26h52.968c1.889 0 3.42 1.531 3.42 3.42s-1.531 3.42-3.42 3.42h-52.968c-1.886 0-3.42 1.534-3.42 3.42v36.062c0 1.889-1.531 3.42-3.42 3.42z" fill="#ffea92"/><path d="m176.655 129.855h-52.968c-1.889 0-3.42-1.531-3.42-3.42s1.531-3.42 3.42-3.42h52.968c1.886 0 3.42-1.534 3.42-3.42v-36.061c0-1.889 1.531-3.42 3.42-3.42s3.42 1.531 3.42 3.42v36.062c0 5.657-4.603 10.259-10.26 10.259z" fill="#ffea92"/></svg>