<svg height="512" viewBox="0 0 60 60" width="512" xmlns="http://www.w3.org/2000/svg"><g id="Page-1" fill="none" fill-rule="evenodd"><g id="006---AR-Phone-Projection" fill-rule="nonzero"><path id="Shape" d="m59 53c-.0156833.5464237-.2479091 1.0642082-.6455379 1.4393298-.3976289.3751215-.9280519.576817-1.4744621.5606702h-3.88l-1.89-4.31h-.11l-2.92-.49c-.7312013-.121245-1.3353929-.6369245-1.57-1.34l-1.07-3.21c-.320186-.9460665.1066687-1.9833234 1-2.43l1.06-.53h.11l-1.61-3.69h1.77c1.4354563-.0118588 2.78216.6933788 3.59 1.88l7.31 11.06c.2152254.3115579.3303435.6813311.33 1.06z" fill="#3f51b5"/><path id="Shape" d="m58.67 51.94-7.31-11.06c-.80784-1.1866212-2.1545437-1.8918588-3.59-1.88l-1.77-.0001472.091.2081472c.9254537.281119 1.7263997.8713269 2.269 1.672l7.31 11.06c.2152254.3115579.3303435.6813311.33 1.06-.0156833.5464237-.2479091 1.0642082-.6455379 1.4393298-.3976289.3751215-.9280519.576817-1.4744621.5606702h3c.5464102.0161468 1.0768332-.1855487 1.4744621-.5606702.3976288-.3751216.6298546-.8929061.6455379-1.4393298.0003435-.3786689-.1147746-.7484421-.33-1.06z" fill="#283593"/><path id="Shape" d="m53 55h-45l7-16h2.42l4.58 7h16l4.58-7h3.42l1.61 3.69h-.11l-1.06.53c-.8933313.4466766-1.320186 1.4839335-1 2.43l1.07 3.21c.2346071.7030755.8387987 1.218755 1.57 1.34l2.92.49h.11z" fill="#02a9f4"/><path id="Shape" d="m15 38.9998528-7 16.0001472h-4.88c-.54641024.0161468-1.07683322-.1855487-1.47446206-.5606702-.39762884-.3751216-.62985465-.8929061-.64553794-1.4393298-.00034347-.3786689.11477459-.7484421.33-1.06l7.31-11.06c.80784003-1.1866212 2.1545437-1.8918588 3.59-1.88z" fill="#3f51b5"/><path id="Shape" d="m59 53v4c-.0032948 1.1032019-.8967981 1.9967052-2 2h-54c-1.10320187-.0032948-1.9967052-.8967981-2-2v-4c.01568329.5464237.2479091 1.0642082.64553794 1.4393298.39762884.3751215.92805182.576817 1.47446206.5606702h53.76c.5464102.0161468 1.0768332-.1855487 1.4744621-.5606702.3976288-.3751216.6298546-.8929061.6455379-1.4393298z" fill="#3f51b5"/><path id="Shape" d="m56.88 55h-.88v2c-.0032948 1.1032019-.8967981 1.9967052-2 2h3c1.1032019-.0032948 1.9967052-.8967981 2-2v-4c-.0156833.5464237-.2479091 1.0642082-.6455379 1.4393298-.3976289.3751215-.9280519.576817-1.4744621.5606702z" fill="#283593"/><path id="Shape" d="m43 8v14l-13 7-13-7v-14l13-7z" fill="#ffdc00"/><path id="Shape" d="m30 1-1.5.808 11.5 6.192v14l-11.5 6.192 1.5.808 13-7v-14z" fill="#fec108"/><g fill="#ff9801"><path id="Shape" d="m33.526 11.969-3.526 1.896-3.526-1.9c-.4865629-.261783-1.093217-.0795629-1.355.407s-.0795629 1.093217.407 1.355l3.474 1.873v2.4c0 .5522847.4477153 1 1 1s1-.4477153 1-1v-2.4l3.474-1.867c.4865629-.261783.668783-.8684371.407-1.355s-.8684371-.668783-1.355-.407z"/><path id="Shape" d="m21.474 9.269-4-2.15c-.4865629-.26178296-1.093217-.07956285-1.355.40700001-.2617829.48656286-.0795629 1.09321701.407 1.35499999l4 2.15c.4865629.261783 1.093217.0795629 1.355-.407s.0795629-1.09321703-.407-1.355z"/><path id="Shape" d="m43.881 7.526c-.1256309-.23373831-.3390132-.40795869-.5931576-.48429579-.2541445-.07633711-.5282093-.04853075-.7618424.07729579l-4 2.15c-.4865629.26178297-.668783.8684371-.407 1.355s.8684371.668783 1.355.407l4-2.15c.2337383-.12563094.4079587-.33901324.4842958-.59315765.0763371-.2541444.0485307-.52820927-.0772958-.76184235z"/><path id="Shape" d="m30 23c-.5522847 0-1 .4477153-1 1v5c0 .5522847.4477153 1 1 1s1-.4477153 1-1v-5c0-.5522847-.4477153-1-1-1z"/></g><path id="Shape" d="m52.192 40.325c-.9912762-1.4670275-2.6515271-2.3399545-4.422-2.325h-3.344l11.411-17.453c.2018671-.2990627.2269735-.6836811.065697-1.0064483-.1612764-.3227673-.483923-.5336247-.8442838-.5517602-.3603608-.0181354-.7025466.1592638-.8954132.4642085l-16.704 25.547h-14.918l-16.704-25.547c-.19286656-.3049447-.53505243-.4823439-.89541323-.4642085-.36036079.0181355-.68300733.2289929-.84428378.5517602-.16127644.3227672-.13617006.7073856.06569701 1.0064483l11.411 17.453h-3.344c-1.771936-.0147333-3.43324546.8598575-4.424 2.329l-7.306 11.05c-.32780034.4768332-.50223965 1.0423654-.5 1.621v4c0 1.6568542 1.34314575 3 3 3h54c1.6568542 0 3-1.3431458 3-3v-4c.0011577-.5753693-.1732759-1.1373941-.5-1.611zm-36.538-.325h1.228l4.281 6.547c.1846545.2825966.4994231.4529552.837.453h16c.3375769-.0000448.6523455-.1704034.837-.453l4.281-6.547h2.227l.95 2.175-.306.153c-1.3298694.6757789-1.9671103 2.2213004-1.5 3.638l1.069 3.206c.3468769 1.0589064 1.2551848 1.8360785 2.355 2.015l2.505.42 1.051 2.393h-41.94zm-13.49 12.491 7.308-11.056c.620838-.9102138 1.6563042-1.4489716 2.758-1.435h1.241l-6.125 14h-4.226c-.58477269.0312839-1.08509482-.4154323-1.12-1 .00080568-.1825293.05809442-.360334.164-.509zm55.836 4.509c0 .5522847-.4477153 1-1 1h-54c-.55228475 0-1-.4477153-1-1v-1.208c.35788851.1357606.73723125.2062099 1.12.208h53.76c.3827687-.0017901.7621115-.0722394 1.12-.208zm-1.12-3h-3.226l-1.628-3.711c-.158974-.3642554-.5185648-.5997952-.916-.6l-2.868-.477c-.3645948-.061126-.6657233-.318412-.783-.669l-1.071-3.213c-.16067-.4733302.0528448-.992598.5-1.216l.87-.435c.3077613-.0459094.5766134-.232467.7273297-.5046972.1507164-.2722302.1661195-.5991062.0416703-.8843028l-1-2.29h.242c1.1002376-.0141962 2.1346466.5229008 2.756 1.431l7.318 11.069c.1022462.1466835.1570436.3211975.157.5-.0349052.5845677-.5352273 1.0312839-1.12 1z" fill="#000"/><path id="Shape" d="m16.526 22.88 13 7c.2959236.1593002.6520764.1593002.948 0l13-7c.3237997-.1743063.525807-.5122652.526-.88v-14c-.000193-.36773483-.2022003-.70569372-.526-.88l-13-7c-.2959236-.15930021-.6520764-.15930021-.948 0l-13 7c-.3237997.17430628-.525807.51226517-.526.88v14c.000193.3677348.2022003.7056937.526.88zm1.474-14.28 12-6.464 12 6.464v12.8l-12 6.464-12-6.464z" fill="#000"/></g></g></svg>