<svg xmlns="http://www.w3.org/2000/svg" viewBox="0 0 512 512" width="512" height="512">
	<style>
		tspan { white-space:pre }
		.shp0 { fill: #3f51b5 } 
	</style>
	<path id="Layer" fill-rule="evenodd" class="shp0" d="M512 374.29L443.14 374.29L443.14 443.14L374.29 443.14L374.29 512L0 512L0 137.71L68.86 137.71L68.86 68.86L137.71 68.86L137.71 0L512 0L512 374.29ZM344.29 167.71L30 167.71L30 482L344.29 482L344.29 167.71ZM413.14 98.86L98.86 98.86L98.86 137.71L374.29 137.71L374.29 413.14L413.14 413.14L413.14 98.86ZM482 30L167.71 30L167.71 68.86L443.14 68.86L443.14 344.29L482 344.29L482 30Z" />
</svg>