<?xml version="1.0" encoding="iso-8859-1"?>
<!-- Generator: Adobe Illustrator 19.0.0, SVG Export Plug-In . SVG Version: 6.00 Build 0)  -->
<svg version="1.1" id="Layer_1" xmlns="http://www.w3.org/2000/svg" xmlns:xlink="http://www.w3.org/1999/xlink" x="0px" y="0px"
	 viewBox="0 0 512 512" style="enable-background:new 0 0 512 512;" xml:space="preserve">
<g>
	<g>
		<path d="M506.307,178.96L259.449,78.388c-2.21-0.9-4.688-0.9-6.897,0L5.693,178.96c-3.395,1.384-5.636,4.66-5.692,8.325
			c-0.058,3.664,2.078,7.009,5.426,8.498l246.858,109.715c1.183,0.526,2.449,0.788,3.714,0.788c1.266,0,2.531-0.262,3.714-0.788
			l246.858-109.715c3.348-1.489,5.484-4.834,5.426-8.498C511.943,183.62,509.702,180.344,506.307,178.96z M256,287.137
			L32.477,187.794L256,96.729l223.523,91.065L256,287.137z"/>
	</g>
</g>
<g>
	<g>
		<path d="M506.307,306.962l-104.032-42.385c-4.674-1.904-10.011,0.34-11.915,5.018c-1.906,4.676,0.341,10.011,5.018,11.916
			l84.146,34.284L256,415.138L32.477,315.795l81.909-33.372c4.676-1.906,6.924-7.241,5.018-11.918
			c-1.902-4.676-7.239-6.919-11.915-5.018L5.693,306.962c-3.395,1.383-5.636,4.659-5.692,8.324
			c-0.058,3.664,2.078,7.009,5.426,8.498l246.858,109.715c1.183,0.526,2.449,0.788,3.714,0.788c1.266,0,2.531-0.262,3.714-0.788
			l246.858-109.715c3.348-1.489,5.484-4.834,5.426-8.498C511.943,311.621,509.702,308.345,506.307,306.962z"/>
	</g>
</g>
<g>
</g>
<g>
</g>
<g>
</g>
<g>
</g>
<g>
</g>
<g>
</g>
<g>
</g>
<g>
</g>
<g>
</g>
<g>
</g>
<g>
</g>
<g>
</g>
<g>
</g>
<g>
</g>
<g>
</g>
</svg>
