<?xml version="1.0" encoding="iso-8859-1"?>
<!-- Generator: Adobe Illustrator 19.0.0, SVG Export Plug-In . SVG Version: 6.00 Build 0)  -->
<svg version="1.1" id="Layer_1" xmlns="http://www.w3.org/2000/svg" xmlns:xlink="http://www.w3.org/1999/xlink" x="0px" y="0px"
	 viewBox="0 0 512 512" style="enable-background:new 0 0 512 512;" xml:space="preserve">
<g>
	<g>
		<path d="M469.333,106.667h-67.656c-8.552,0-16.583-3.333-22.635-9.375l-39-39c-10.073-10.083-23.469-15.625-37.719-15.625h-92.646
			c-14.25,0-27.646,5.542-37.719,15.625l-39,39c-6.052,6.042-14.083,9.375-22.635,9.375H42.667C19.135,106.667,0,125.812,0,149.333
			v277.333c0,23.521,19.135,42.667,42.667,42.667h426.667c23.531,0,42.667-19.146,42.667-42.667V149.333
			C512,125.812,492.865,106.667,469.333,106.667z M265.854,398.75c-1.646,3.979-5.542,6.583-9.854,6.583
			c-70.583,0-128-57.417-128-128c0-53.292,32.198-100.146,82.031-119.375c5.51-2.083,11.688,0.604,13.792,6.125
			c2.125,5.5-0.615,11.667-6.104,13.792c-41.542,16.021-68.385,55.063-68.385,99.458c0,43.646,26.354,81.271,64,97.75v-12.417
			c0-4.313,2.594-8.208,6.583-9.854c4.01-1.604,8.573-0.729,11.625,2.313l32,32C266.594,390.167,267.51,394.771,265.854,398.75z
			 M302.552,396.479c-1.281,0.5-2.594,0.729-3.885,0.729c-4.26,0-8.292-2.563-9.938-6.771c-2.146-5.5,0.563-11.688,6.052-13.833
			c41.24-16.125,67.885-55.083,67.885-99.271c0-43.646-26.354-81.271-64-97.75V192c0,4.313-2.594,8.208-6.583,9.854
			c-3.958,1.625-8.563,0.75-11.625-2.313l-32-32c-3.052-3.042-3.969-7.646-2.313-11.625c1.646-3.979,5.542-6.583,9.854-6.583
			c70.583,0,128,57.417,128,128C384,330.354,352.031,377.125,302.552,396.479z M426.667,213.333
			c-11.76,0-21.333-9.563-21.333-21.333s9.573-21.333,21.333-21.333S448,180.229,448,192S438.427,213.333,426.667,213.333z"/>
	</g>
</g>
<g>
</g>
<g>
</g>
<g>
</g>
<g>
</g>
<g>
</g>
<g>
</g>
<g>
</g>
<g>
</g>
<g>
</g>
<g>
</g>
<g>
</g>
<g>
</g>
<g>
</g>
<g>
</g>
<g>
</g>
</svg>
