<svg xmlns="http://www.w3.org/2000/svg" viewBox="0 0 512 512" width="512" height="512">
	<style>
		tspan { white-space:pre }
		.shp0 { fill: #f7f7f7 } 
	</style>
	<g id="Layer">
		<g id="Layer">
			<path id="Layer" fill-rule="evenodd" class="shp0" d="M399.54 185.17L126.47 509.44C124.76 511.15 122.2 512 119.64 512C117.94 512 116.23 512 115.38 511.15C111.96 508.59 110.26 504.32 111.96 500.91L207.53 273.07L119.64 273.07C117.08 273.07 113.67 271.36 111.96 268.8C110.25 266.24 110.25 262.83 111.96 260.27L239.96 4.27C241.67 1.71 244.23 0 247.64 0L384.18 0C387.59 0 390.15 1.71 391.86 4.27C393.56 6.83 393.56 10.24 391.86 12.8L292.01 170.67L392.71 170.67C396.12 170.67 398.68 172.37 400.39 175.79C402.1 179.2 401.24 182.61 399.54 185.17ZM374.79 187.73L275.8 187.73C272.39 187.73 269.83 186.03 268.12 183.47C266.42 180.91 266.42 177.49 268.12 174.93L368.81 17.07L252.76 17.07L133.3 256L220.34 256C222.9 256 225.46 257.71 227.16 259.41C228.87 261.97 228.87 264.53 228.02 267.09L149.51 454.83L374.79 187.73Z" />
		</g>
	</g>
	
</svg>